@startuml
class 书目{
     书目号
}
class 图书{
     ISBN
     书名
     作者
     出版社
     价格
     被预定的数目
     库存
     类型
}
class 预约{
      预约编号
      ISBN
      预约日期
      读者ID
      数量
}

class 读者{
    账号
    姓名
    密码
    已借书目
    最大可借数目
}
class 借阅记录{
         ID
         读者账号
         ISBN
         日期
}
class 逾期记录{
        编号：30
        读者账号
        ISBN
        日期
        逾期天数
        逾期一天罚款数额
        罚款数额
}
class 图书管理员{
    职工号
    账号
    密码
}
class 超级管理员{
    职工号
    账号
    密码
}

书目 "0..*" - "1" 图书
图书 "1"--right--"*"预约
预约 "*"-right-"1"读者
读者 "1"-up-"0..*"借阅记录
借阅记录 "0..1"-left-"1"书目
借阅记录 "1"-"0..1"逾期记录
借阅记录"*"-up-"1"图书管理员
逾期记录"*"--"0..1"罚款细则
图书管理员<|-left-超级管理员
@enduml
